<svg width="14" height="14" viewBox="0 0 14 14" fill="none" xmlns="http://www.w3.org/2000/svg">
<path d="M0 3.25C0 2.38805 0.34241 1.5614 0.951903 0.951903C1.5614 0.34241 2.38805 0 3.25 0H4.596C4.79491 0 4.98568 0.0790175 5.12633 0.21967C5.26698 0.360322 5.346 0.551088 5.346 0.75C5.346 0.948912 5.26698 1.13968 5.12633 1.28033C4.98568 1.42098 4.79491 1.5 4.596 1.5H3.25C2.78587 1.5 2.34075 1.68437 2.01256 2.01256C1.68437 2.34075 1.5 2.78587 1.5 3.25V4.596C1.5 4.79491 1.42098 4.98568 1.28033 5.12633C1.13968 5.26698 0.948912 5.346 0.75 5.346C0.551088 5.346 0.360322 5.26698 0.21967 5.12633C0.0790175 4.98568 0 4.79491 0 4.596V3.25ZM8.654 0.75C8.654 0.551088 8.73302 0.360322 8.87367 0.21967C9.01432 0.0790175 9.20509 0 9.404 0H10.75C11.612 0 12.4386 0.34241 13.0481 0.951903C13.6576 1.5614 14 2.38805 14 3.25V4.596C14 4.79491 13.921 4.98568 13.7803 5.12633C13.6397 5.26698 13.4489 5.346 13.25 5.346C13.0511 5.346 12.8603 5.26698 12.7197 5.12633C12.579 4.98568 12.5 4.79491 12.5 4.596V3.25C12.5 2.78587 12.3156 2.34075 11.9874 2.01256C11.6592 1.68437 11.2141 1.5 10.75 1.5H9.404C9.20509 1.5 9.01432 1.42098 8.87367 1.28033C8.73302 1.13968 8.654 0.948912 8.654 0.75ZM0.75 8.654C0.948912 8.654 1.13968 8.73302 1.28033 8.87367C1.42098 9.01432 1.5 9.20509 1.5 9.404V10.75C1.5 11.716 2.284 12.5 3.25 12.5H4.596C4.79491 12.5 4.98568 12.579 5.12633 12.7197C5.26698 12.8603 5.346 13.0511 5.346 13.25C5.346 13.4489 5.26698 13.6397 5.12633 13.7803C4.98568 13.921 4.79491 14 4.596 14H3.25C2.38805 14 1.5614 13.6576 0.951903 13.0481C0.34241 12.4386 0 11.612 0 10.75V9.404C0 9.20509 0.0790175 9.01432 0.21967 8.87367C0.360322 8.73302 0.551088 8.654 0.75 8.654ZM13.25 8.654C13.4489 8.654 13.6397 8.73302 13.7803 8.87367C13.921 9.01432 14 9.20509 14 9.404V10.75C14 11.612 13.6576 12.4386 13.0481 13.0481C12.4386 13.6576 11.612 14 10.75 14H9.404C9.20509 14 9.01432 13.921 8.87367 13.7803C8.73302 13.6397 8.654 13.4489 8.654 13.25C8.654 13.0511 8.73302 12.8603 8.87367 12.7197C9.01432 12.579 9.20509 12.5 9.404 12.5H10.75C11.2141 12.5 11.6592 12.3156 11.9874 11.9874C12.3156 11.6592 12.5 11.2141 12.5 10.75V9.404C12.5 9.20509 12.579 9.01432 12.7197 8.87367C12.8603 8.73302 13.0511 8.654 13.25 8.654ZM7 8C7.26522 8 7.51957 7.89464 7.70711 7.70711C7.89464 7.51957 8 7.26522 8 7C8 6.73478 7.89464 6.48043 7.70711 6.29289C7.51957 6.10536 7.26522 6 7 6C6.73478 6 6.48043 6.10536 6.29289 6.29289C6.10536 6.48043 6 6.73478 6 7C6 7.26522 6.10536 7.51957 6.29289 7.70711C6.48043 7.89464 6.73478 8 7 8ZM3 9V6C3 5.73478 3.10536 5.48043 3.29289 5.29289C3.48043 5.10536 3.73478 5 4 5H5L5.703 3.945C5.79435 3.80808 5.91808 3.69583 6.06322 3.61821C6.20835 3.54058 6.37041 3.49998 6.535 3.5H7.465C7.62959 3.49998 7.79165 3.54058 7.93678 3.61821C8.08192 3.69583 8.20565 3.80808 8.297 3.945L9 5H10C10.2652 5 10.5196 5.10536 10.7071 5.29289C10.8946 5.48043 11 5.73478 11 6V9C11 9.26522 10.8946 9.51957 10.7071 9.70711C10.5196 9.89464 10.2652 10 10 10H4C3.73478 10 3.48043 9.89464 3.29289 9.70711C3.10536 9.51957 3 9.26522 3 9ZM9 7C9 6.46957 8.78929 5.96086 8.41421 5.58579C8.03914 5.21071 7.53043 5 7 5C6.46957 5 5.96086 5.21071 5.58579 5.58579C5.21071 5.96086 5 6.46957 5 7C5 7.53043 5.21071 8.03914 5.58579 8.41421C5.96086 8.78929 6.46957 9 7 9C7.53043 9 8.03914 8.78929 8.41421 8.41421C8.78929 8.03914 9 7.53043 9 7Z" fill="white"/>
</svg>
