<svg width="44" height="44" viewBox="0 0 44 44" fill="none" xmlns="http://www.w3.org/2000/svg">
<path d="M13.0625 5.5C11.0568 5.5 9.13325 6.29676 7.71501 7.71501C6.29676 9.13325 5.5 11.0568 5.5 13.0625V15.4385C5.5 15.9855 5.7173 16.5101 6.10409 16.8969C6.49089 17.2837 7.01549 17.501 7.5625 17.501C8.10951 17.501 8.63411 17.2837 9.02091 16.8969C9.4077 16.5101 9.625 15.9855 9.625 15.4385V13.0625C9.625 11.165 11.165 9.625 13.0625 9.625H15.4385C15.9855 9.625 16.5101 9.4077 16.8969 9.02091C17.2837 8.63411 17.501 8.10951 17.501 7.5625C17.501 7.01549 17.2837 6.49089 16.8969 6.10409C16.5101 5.7173 15.9855 5.5 15.4385 5.5H13.0625ZM28.5615 5.5C28.2906 5.5 28.0224 5.55335 27.7722 5.657C27.522 5.76065 27.2946 5.91257 27.1031 6.10409C26.9116 6.29561 26.7596 6.52298 26.656 6.77322C26.5523 7.02345 26.499 7.29165 26.499 7.5625C26.499 7.83335 26.5523 8.10155 26.656 8.35178C26.7596 8.60202 26.9116 8.82939 27.1031 9.02091C27.2946 9.21243 27.522 9.36435 27.7722 9.468C28.0224 9.57165 28.2906 9.625 28.5615 9.625H30.9375C32.835 9.625 34.375 11.165 34.375 13.0625V15.4385C34.375 15.9855 34.5923 16.5101 34.9791 16.8969C35.3659 17.2837 35.8905 17.501 36.4375 17.501C36.9845 17.501 37.5091 17.2837 37.8959 16.8969C38.2827 16.5101 38.5 15.9855 38.5 15.4385V13.0625C38.5 11.0568 37.7032 9.13325 36.285 7.71501C34.8668 6.29676 32.9432 5.5 30.9375 5.5H28.5615ZM9.625 28.5615C9.625 28.2906 9.57165 28.0224 9.468 27.7722C9.36435 27.522 9.21243 27.2946 9.02091 27.1031C8.82939 26.9116 8.60202 26.7596 8.35178 26.656C8.10155 26.5523 7.83335 26.499 7.5625 26.499C7.29165 26.499 7.02345 26.5523 6.77322 26.656C6.52298 26.7596 6.29561 26.9116 6.10409 27.1031C5.91257 27.2946 5.76065 27.522 5.657 27.7722C5.55335 28.0224 5.5 28.2906 5.5 28.5615V30.9375C5.5 32.9432 6.29676 34.8668 7.71501 36.285C9.13325 37.7032 11.0568 38.5 13.0625 38.5H15.4385C15.9855 38.5 16.5101 38.2827 16.8969 37.8959C17.2837 37.5091 17.501 36.9845 17.501 36.4375C17.501 35.8905 17.2837 35.3659 16.8969 34.9791C16.5101 34.5923 15.9855 34.375 15.4385 34.375H13.0625C11.165 34.375 9.625 32.835 9.625 30.9375V28.5615ZM38.5 28.5615C38.5 28.0145 38.2827 27.4899 37.8959 27.1031C37.5091 26.7163 36.9845 26.499 36.4375 26.499C35.8905 26.499 35.3659 26.7163 34.9791 27.1031C34.5923 27.4899 34.375 28.0145 34.375 28.5615V30.9375C34.375 32.835 32.835 34.375 30.9375 34.375H28.5615C28.0145 34.375 27.4899 34.5923 27.1031 34.9791C26.7163 35.3659 26.499 35.8905 26.499 36.4375C26.499 36.9845 26.7163 37.5091 27.1031 37.8959C27.4899 38.2827 28.0145 38.5 28.5615 38.5H30.9375C32.9432 38.5 34.8668 37.7032 36.285 36.285C37.7032 34.8668 38.5 32.9432 38.5 30.9375V28.5615ZM14.4375 19.9375C13.8905 19.9375 13.3659 20.1548 12.9791 20.5416C12.5923 20.9284 12.375 21.453 12.375 22C12.375 22.547 12.5923 23.0716 12.9791 23.4584C13.3659 23.8452 13.8905 24.0625 14.4375 24.0625H29.5625C30.1095 24.0625 30.6341 23.8452 31.0209 23.4584C31.4077 23.0716 31.625 22.547 31.625 22C31.625 21.453 31.4077 20.9284 31.0209 20.5416C30.6341 20.1548 30.1095 19.9375 29.5625 19.9375H14.4375Z" fill="url(#paint0_linear_102_465)"/>
<defs>
<linearGradient id="paint0_linear_102_465" x1="33" y1="8.25" x2="8.25" y2="35.75" gradientUnits="userSpaceOnUse">
<stop stop-color="#7C3AED"/>
<stop offset="1" stop-color="#1DB5BE"/>
</linearGradient>
</defs>
</svg>
